<?xml version="1.0" standalone="no"?>
<!DOCTYPE svg PUBLIC "-//W3C//DTD SVG 20010904//EN"
 "http://www.w3.org/TR/2001/REC-SVG-20010904/DTD/svg10.dtd">
<svg version="1.0" xmlns="http://www.w3.org/2000/svg"
 width="650.000000pt" height="650.000000pt" viewBox="0 0 650.000000 650.000000"
 preserveAspectRatio="xMidYMid meet">
<metadata>
Created by potrace 1.11, written by Peter Selinger 2001-2013
</metadata>
<g transform="translate(0.000000,650.000000) scale(0.100000,-0.100000)"
fill="#000000" stroke="none">
<path d="M1967 5782 l-477 -477 0 -748 0 -747 220 -220 c122 -121 220 -220
218 -220 -2 0 -165 -1 -363 -1 l-360 -1 -1 -492 0 -493 194 1 c107 1 196 -2
198 -6 4 -6 -70 -187 -132 -323 -7 -16 -42 -97 -78 -180 -131 -308 -318 -741
-337 -782 -10 -23 -19 -44 -19 -47 0 -2 -16 -40 -35 -83 -20 -43 -40 -87 -44
-98 -5 -11 -21 -46 -35 -78 -14 -32 -26 -60 -26 -63 0 -3 -13 -33 -28 -67 -16
-34 -37 -83 -48 -109 -10 -27 -26 -48 -34 -49 -8 0 -41 -1 -72 0 l-58 0 0
-125 c0 -68 3 -125 8 -125 4 -1 107 -2 229 -3 l223 -1 0 127 c0 107 -2 128
-15 128 -25 0 -24 3 65 205 10 22 46 105 80 185 34 80 71 163 81 184 11 22 19
43 19 47 0 4 16 42 36 86 47 104 49 108 80 183 14 36 35 83 45 105 10 22 54
125 99 230 45 104 90 207 99 230 10 22 24 54 31 70 6 17 44 104 84 194 l71
164 165 0 c208 -1 202 -1 195 -13 -4 -6 -22 -52 -40 -103 -30 -83 -136 -360
-152 -397 -3 -8 -7 -20 -8 -25 -2 -9 -19 -52 -55 -140 -5 -11 -27 -69 -50
-130 -23 -60 -48 -124 -56 -142 -8 -17 -14 -34 -14 -38 0 -7 -56 -154 -80
-210 -23 -55 -60 -156 -60 -165 0 -7 544 -10 1579 -10 l1579 0 -35 87 c-19 49
-50 131 -70 183 -19 52 -43 114 -54 137 -10 24 -19 46 -19 49 0 4 -23 66 -51
138 -28 72 -66 169 -84 216 -43 111 -48 124 -50 130 -1 3 -5 14 -10 25 -48
115 -154 399 -151 404 3 5 140 6 242 2 16 -1 28 -19 54 -78 18 -43 41 -96 51
-118 123 -283 154 -355 192 -445 82 -193 407 -945 421 -975 8 -16 37 -83 64
-147 45 -106 48 -118 31 -118 -20 0 -19 6 -21 -188 0 -29 3 -56 7 -60 4 -4
107 -7 229 -7 l223 0 0 127 0 126 -70 1 c-38 0 -71 2 -72 3 -1 2 -41 95 -89
208 -49 113 -99 229 -112 258 -13 29 -24 55 -24 57 0 2 -11 28 -24 57 -13 29
-44 100 -69 158 -24 58 -54 125 -65 150 -11 25 -41 95 -67 155 -26 61 -58 134
-71 163 -13 29 -24 55 -24 57 0 3 -16 39 -35 81 -19 41 -35 78 -35 80 0 3 -9
24 -19 47 -78 172 -172 400 -167 405 4 3 116 5 251 5 l245 0 0 493 0 493 -356
0 c-196 0 -359 2 -362 5 -3 3 92 103 211 222 l217 215 0 182 c0 100 0 436 0
746 l0 564 -480 479 -481 478 -857 0 -857 -1 -478 -477z m2440 -125 l454 -455
0 -645 0 -645 -272 -271 -273 -271 -280 0 c-155 -1 -609 -1 -1011 -1 l-730 -1
-272 268 -272 269 0 650 -1 650 453 452 452 452 50 3 c28 2 319 2 648 1 l599
-2 455 -454z m703 -2782 l0 -195 -1804 0 -1805 0 -1 195 0 195 1805 0 1805 0
0 -195z m-1044 -494 c17 -1 28 -21 63 -113 24 -62 60 -158 82 -213 21 -55 70
-183 109 -285 39 -102 77 -201 85 -220 45 -114 105 -271 105 -278 0 -4 -542
-7 -1205 -7 -1093 0 -1205 1 -1205 16 0 9 3 19 7 23 4 3 8 12 9 19 2 10 246
647 269 702 4 11 9 22 10 25 1 3 5 14 10 25 37 97 55 144 55 149 0 6 23 59 53
126 7 14 15 27 19 30 5 4 1434 5 1534 1z"/>
</g>
</svg>
